<svg xmlns="http://www.w3.org/2000/svg" viewBox="0 0 64 64">
  <defs>
    <linearGradient id="shield" x1="8" y1="5" x2="56" y2="59" gradientUnits="userSpaceOnUse">
      <stop stop-color="#29e2ae"/>
      <stop offset="0.55" stop-color="#20cfa0"/>
      <stop offset="1" stop-color="#7186ff"/>
    </linearGradient>
    <filter id="glow" x="-30%" y="-30%" width="160%" height="160%">
      <feGaussianBlur stdDeviation="1.5" result="blur"/>
      <feMerge><feMergeNode in="blur"/><feMergeNode in="SourceGraphic"/></feMerge>
    </filter>
  </defs>
  <path d="M32 3 56 11v18c0 15.2-9.8 26.5-24 32C17.8 55.5 8 44.2 8 29V11L32 3Z" fill="#07151f" stroke="url(#shield)" stroke-width="3"/>
  <path d="M44.7 20.7c-3.1-2.8-7.2-4.2-12.1-4.2-6.9 0-11.7 3.5-11.7 8.8 0 5.6 4.3 7.3 10.9 8.5 4 .7 5.6 1.3 5.6 3.5 0 2-2 3.2-5 3.2-4.2 0-7.5-1.3-10.4-4.1l-4.3 5c3.7 3.8 8.7 5.8 14.5 5.8 7.7 0 12.6-3.9 12.6-9.8 0-5.8-4.1-7.5-11.3-8.8-3.7-.7-5.2-1.2-5.2-3.1 0-1.7 1.8-2.7 4.4-2.7 3.4 0 6.1 1 8.5 3l3.5-5.1Z" fill="url(#shield)" filter="url(#glow)"/>
</svg>
